<?xml version="1.0" encoding="utf-8" ?>
<svg baseProfile="tiny" height="100%" preserveAspectRatio="none" version="1.2" width="100%" xmlns="http://www.w3.org/2000/svg" xmlns:ev="http://www.w3.org/2001/xml-events" xmlns:xlink="http://www.w3.org/1999/xlink"><defs /><path d="m 0 0 A 1.0 1.0 0 1,0 2 0" fill="none" stroke="red" stroke-opacity="0.25" stroke-width="0.6" /><path d="m 2 0 A 1.0 1.0 0 1,1 4 0" fill="none" stroke="red" stroke-opacity="0.25" stroke-width="0.6" /><path d="m 4 0 A 1.0 1.0 0 1,1 6 0" fill="none" stroke="red" stroke-opacity="0.25" stroke-width="0.6" /><path d="m 6 0 A 1.0 1.0 0 1,1 8 0" fill="none" stroke="red" stroke-opacity="0.25" stroke-width="0.6" /><path d="m 8 0 A 1.0 1.0 0 1,1 10 0" fill="none" stroke="red" stroke-opacity="0.25" stroke-width="0.6" /><path d="m 10 0 A 1.0 1.0 0 1,1 12 0" fill="none" stroke="red" stroke-opacity="0.25" stroke-width="0.6" /><path d="m 12 0 A 1.0 1.0 0 1,1 14 0" fill="none" stroke="red" stroke-opacity="0.25" stroke-width="0.6" /><path d="m 14 0 A 1.0 1.0 0 1,1 16 0" fill="none" stroke="red" stroke-opacity="0.25" stroke-width="0.6" /><path d="m 16 0 A 1.0 1.0 0 1,1 18 0" fill="none" stroke="red" stroke-opacity="0.25" stroke-width="0.6" /><path d="m 18 0 A 1.0 1.0 0 1,1 20 0" fill="none" stroke="red" stroke-opacity="0.25" stroke-width="0.6" /><path d="m 20 0 A 1.0 1.0 0 1,1 22 0" fill="none" stroke="red" stroke-opacity="0.25" stroke-width="0.6" /><path d="m 22 0 A 1.0 1.0 0 1,1 24 0" fill="none" stroke="red" stroke-opacity="0.25" stroke-width="0.6" /><path d="m 24 0 A 1.0 1.0 0 1,1 26 0" fill="none" stroke="red" stroke-opacity="0.25" stroke-width="0.6" /><path d="m 26 0 A 1.0 1.0 0 1,1 28 0" fill="none" stroke="red" stroke-opacity="0.25" stroke-width="0.6" /><path d="m 28 0 A 1.0 1.0 0 1,1 30 0" fill="none" stroke="red" stroke-opacity="0.25" stroke-width="0.6" /><path d="m 30 0 A 1.0 1.0 0 1,1 32 0" fill="none" stroke="red" stroke-opacity="0.25" stroke-width="0.6" /><path d="m 32 0 A 1.0 1.0 0 1,1 34 0" fill="none" stroke="red" stroke-opacity="0.25" stroke-width="0.6" /><path d="m 34 0 A 1.0 1.0 0 1,1 36 0" fill="none" stroke="red" stroke-opacity="0.25" stroke-width="0.6" /><path d="m 36 0 A 1.0 1.0 0 1,1 38 0" fill="none" stroke="red" stroke-opacity="0.25" stroke-width="0.6" /><path d="m 38 0 A 1.0 1.0 0 1,1 40 0" fill="none" stroke="red" stroke-opacity="0.25" stroke-width="0.6" /><path d="m 40 0 A 1.0 1.0 0 1,1 42 0" fill="none" stroke="red" stroke-opacity="0.25" stroke-width="0.6" /><path d="m 42 0 A 1.0 1.0 0 1,1 44 0" fill="none" stroke="red" stroke-opacity="0.25" stroke-width="0.6" /><path d="m 44 0 A 1.0 1.0 0 1,1 46 0" fill="none" stroke="red" stroke-opacity="0.25" stroke-width="0.6" /><path d="m 46 0 A 1.0 1.0 0 1,1 48 0" fill="none" stroke="red" stroke-opacity="0.25" stroke-width="0.6" /><path d="m 48 0 A 1.0 1.0 0 1,1 50 0" fill="none" stroke="red" stroke-opacity="0.25" stroke-width="0.6" /><path d="m 50 0 A 1.0 1.0 0 1,1 52 0" fill="none" stroke="red" stroke-opacity="0.25" stroke-width="0.6" /><path d="m 52 0 A 1.0 1.0 0 1,1 54 0" fill="none" stroke="red" stroke-opacity="0.25" stroke-width="0.6" /><path d="m 54 0 A 1.0 1.0 0 1,1 56 0" fill="none" stroke="red" stroke-opacity="0.25" stroke-width="0.6" /><path d="m 56 0 A 1.0 1.0 0 1,1 58 0" fill="none" stroke="red" stroke-opacity="0.25" stroke-width="0.6" /><path d="m 58 0 A 1.0 1.0 0 1,1 60 0" fill="none" stroke="red" stroke-opacity="0.25" stroke-width="0.6" /><path d="m 60 0 A 1.0 1.0 0 1,1 62 0" fill="none" stroke="red" stroke-opacity="0.25" stroke-width="0.6" /><path d="m 62 0 A 1.0 1.0 0 1,1 64 0" fill="none" stroke="red" stroke-opacity="0.25" stroke-width="0.6" /><path d="m 64 0 A 1.0 1.0 0 1,1 66 0" fill="none" stroke="red" stroke-opacity="0.25" stroke-width="0.6" /><path d="m 66 0 A 1.0 1.0 0 1,1 68 0" fill="none" stroke="red" stroke-opacity="0.25" stroke-width="0.6" /><path d="m 68 0 A 1.0 1.0 0 1,1 70 0" fill="none" stroke="red" stroke-opacity="0.25" stroke-width="0.6" /><path d="m 70 0 A 1.0 1.0 0 1,1 72 0" fill="none" stroke="red" stroke-opacity="0.25" stroke-width="0.6" /><path d="m 72 0 A 1.0 1.0 0 1,1 74 0" fill="none" stroke="red" stroke-opacity="0.25" stroke-width="0.6" /><path d="m 74 0 A 1.0 1.0 0 1,1 76 0" fill="none" stroke="red" stroke-opacity="0.25" stroke-width="0.6" /><path d="m 76 0 A 1.0 1.0 0 1,1 78 0" fill="none" stroke="red" stroke-opacity="0.25" stroke-width="0.6" /><path d="m 78 0 A 1.0 1.0 0 1,1 80 0" fill="none" stroke="red" stroke-opacity="0.25" stroke-width="0.6" /><path d="m 80 0 A 1.0 1.0 0 1,1 82 0" fill="none" stroke="red" stroke-opacity="0.25" stroke-width="0.6" /><path d="m 82 0 A 1.0 1.0 0 1,1 84 0" fill="none" stroke="red" stroke-opacity="0.25" stroke-width="0.6" /><path d="m 84 0 A 1.0 1.0 0 1,1 86 0" fill="none" stroke="red" stroke-opacity="0.25" stroke-width="0.6" /><path d="m 86 0 A 1.0 1.0 0 1,1 88 0" fill="none" stroke="red" stroke-opacity="0.25" stroke-width="0.6" /><path d="m 88 0 A 1.0 1.0 0 1,1 90 0" fill="none" stroke="red" stroke-opacity="0.25" stroke-width="0.6" /><path d="m 90 0 A 1.0 1.0 0 1,1 92 0" fill="none" stroke="red" stroke-opacity="0.25" stroke-width="0.6" /><path d="m 92 0 A 1.0 1.0 0 1,1 94 0" fill="none" stroke="red" stroke-opacity="0.25" stroke-width="0.6" /><path d="m 94 0 A 1.0 1.0 0 1,1 96 0" fill="none" stroke="red" stroke-opacity="0.25" stroke-width="0.6" /><path d="m 96 0 A 1.0 1.0 0 1,1 98 0" fill="none" stroke="red" stroke-opacity="0.25" stroke-width="0.6" /><path d="m 98 0 A 1.0 1.0 0 1,1 100 0" fill="none" stroke="red" stroke-opacity="0.25" stroke-width="0.6" /><path d="m 0 0 A 1.5 1.5 0 1,0 3 0" fill="none" stroke="red" stroke-opacity="0.25" stroke-width="0.6" /><path d="m 3 0 A 1.5 1.5 0 1,1 6 0" fill="none" stroke="red" stroke-opacity="0.25" stroke-width="0.6" /><path d="m 6 0 A 1.5 1.5 0 1,1 9 0" fill="none" stroke="red" stroke-opacity="0.25" stroke-width="0.6" /><path d="m 9 0 A 1.5 1.5 0 1,1 12 0" fill="none" stroke="red" stroke-opacity="0.25" stroke-width="0.6" /><path d="m 12 0 A 1.5 1.5 0 1,1 15 0" fill="none" stroke="red" stroke-opacity="0.25" stroke-width="0.6" /><path d="m 15 0 A 1.5 1.5 0 1,1 18 0" fill="none" stroke="red" stroke-opacity="0.25" stroke-width="0.6" /><path d="m 18 0 A 1.5 1.5 0 1,1 21 0" fill="none" stroke="red" stroke-opacity="0.25" stroke-width="0.6" /><path d="m 21 0 A 1.5 1.5 0 1,1 24 0" fill="none" stroke="red" stroke-opacity="0.25" stroke-width="0.6" /><path d="m 24 0 A 1.5 1.5 0 1,1 27 0" fill="none" stroke="red" stroke-opacity="0.25" stroke-width="0.6" /><path d="m 27 0 A 1.5 1.5 0 1,1 30 0" fill="none" stroke="red" stroke-opacity="0.25" stroke-width="0.6" /><path d="m 30 0 A 1.5 1.5 0 1,1 33 0" fill="none" stroke="red" stroke-opacity="0.25" stroke-width="0.6" /><path d="m 33 0 A 1.5 1.5 0 1,1 36 0" fill="none" stroke="red" stroke-opacity="0.25" stroke-width="0.6" /><path d="m 36 0 A 1.5 1.5 0 1,1 39 0" fill="none" stroke="red" stroke-opacity="0.25" stroke-width="0.6" /><path d="m 39 0 A 1.5 1.5 0 1,1 42 0" fill="none" stroke="red" stroke-opacity="0.25" stroke-width="0.6" /><path d="m 42 0 A 1.5 1.5 0 1,1 45 0" fill="none" stroke="red" stroke-opacity="0.25" stroke-width="0.6" /><path d="m 45 0 A 1.5 1.5 0 1,1 48 0" fill="none" stroke="red" stroke-opacity="0.25" stroke-width="0.6" /><path d="m 48 0 A 1.5 1.5 0 1,1 51 0" fill="none" stroke="red" stroke-opacity="0.25" stroke-width="0.6" /><path d="m 51 0 A 1.5 1.5 0 1,1 54 0" fill="none" stroke="red" stroke-opacity="0.25" stroke-width="0.6" /><path d="m 54 0 A 1.5 1.5 0 1,1 57 0" fill="none" stroke="red" stroke-opacity="0.25" stroke-width="0.6" /><path d="m 57 0 A 1.5 1.5 0 1,1 60 0" fill="none" stroke="red" stroke-opacity="0.25" stroke-width="0.6" /><path d="m 60 0 A 1.5 1.5 0 1,1 63 0" fill="none" stroke="red" stroke-opacity="0.25" stroke-width="0.6" /><path d="m 63 0 A 1.5 1.5 0 1,1 66 0" fill="none" stroke="red" stroke-opacity="0.25" stroke-width="0.6" /><path d="m 66 0 A 1.5 1.5 0 1,1 69 0" fill="none" stroke="red" stroke-opacity="0.25" stroke-width="0.6" /><path d="m 69 0 A 1.5 1.5 0 1,1 72 0" fill="none" stroke="red" stroke-opacity="0.25" stroke-width="0.6" /><path d="m 72 0 A 1.5 1.5 0 1,1 75 0" fill="none" stroke="red" stroke-opacity="0.25" stroke-width="0.6" /><path d="m 75 0 A 1.5 1.5 0 1,1 78 0" fill="none" stroke="red" stroke-opacity="0.25" stroke-width="0.6" /><path d="m 78 0 A 1.5 1.5 0 1,1 81 0" fill="none" stroke="red" stroke-opacity="0.25" stroke-width="0.6" /><path d="m 81 0 A 1.5 1.5 0 1,1 84 0" fill="none" stroke="red" stroke-opacity="0.25" stroke-width="0.6" /><path d="m 84 0 A 1.5 1.5 0 1,1 87 0" fill="none" stroke="red" stroke-opacity="0.25" stroke-width="0.6" /><path d="m 87 0 A 1.5 1.5 0 1,1 90 0" fill="none" stroke="red" stroke-opacity="0.25" stroke-width="0.6" /><path d="m 90 0 A 1.5 1.5 0 1,1 93 0" fill="none" stroke="red" stroke-opacity="0.25" stroke-width="0.6" /><path d="m 93 0 A 1.5 1.5 0 1,1 96 0" fill="none" stroke="red" stroke-opacity="0.25" stroke-width="0.6" /><path d="m 96 0 A 1.5 1.5 0 1,1 99 0" fill="none" stroke="red" stroke-opacity="0.25" stroke-width="0.6" /><path d="m 0 0 A 2.0 2.0 0 1,1 4 0" fill="none" stroke="black" stroke-opacity="0.25" stroke-width="0.6" /><path d="m 4 0 A 2.0 2.0 0 1,1 8 0" fill="none" stroke="black" stroke-opacity="0.25" stroke-width="0.6" /><path d="m 8 0 A 2.0 2.0 0 1,1 12 0" fill="none" stroke="black" stroke-opacity="0.25" stroke-width="0.6" /><path d="m 12 0 A 2.0 2.0 0 1,1 16 0" fill="none" stroke="black" stroke-opacity="0.25" stroke-width="0.6" /><path d="m 16 0 A 2.0 2.0 0 1,1 20 0" fill="none" stroke="black" stroke-opacity="0.25" stroke-width="0.6" /><path d="m 20 0 A 2.0 2.0 0 1,1 24 0" fill="none" stroke="black" stroke-opacity="0.25" stroke-width="0.6" /><path d="m 24 0 A 2.0 2.0 0 1,1 28 0" fill="none" stroke="black" stroke-opacity="0.25" stroke-width="0.6" /><path d="m 28 0 A 2.0 2.0 0 1,1 32 0" fill="none" stroke="black" stroke-opacity="0.25" stroke-width="0.6" /><path d="m 32 0 A 2.0 2.0 0 1,1 36 0" fill="none" stroke="black" stroke-opacity="0.25" stroke-width="0.6" /><path d="m 36 0 A 2.0 2.0 0 1,1 40 0" fill="none" stroke="black" stroke-opacity="0.25" stroke-width="0.6" /><path d="m 40 0 A 2.0 2.0 0 1,1 44 0" fill="none" stroke="black" stroke-opacity="0.25" stroke-width="0.6" /><path d="m 44 0 A 2.0 2.0 0 1,1 48 0" fill="none" stroke="black" stroke-opacity="0.25" stroke-width="0.6" /><path d="m 48 0 A 2.0 2.0 0 1,1 52 0" fill="none" stroke="black" stroke-opacity="0.25" stroke-width="0.6" /><path d="m 52 0 A 2.0 2.0 0 1,1 56 0" fill="none" stroke="black" stroke-opacity="0.25" stroke-width="0.6" /><path d="m 56 0 A 2.0 2.0 0 1,1 60 0" fill="none" stroke="black" stroke-opacity="0.25" stroke-width="0.6" /><path d="m 60 0 A 2.0 2.0 0 1,1 64 0" fill="none" stroke="black" stroke-opacity="0.25" stroke-width="0.6" /><path d="m 64 0 A 2.0 2.0 0 1,1 68 0" fill="none" stroke="black" stroke-opacity="0.25" stroke-width="0.6" /><path d="m 68 0 A 2.0 2.0 0 1,1 72 0" fill="none" stroke="black" stroke-opacity="0.25" stroke-width="0.6" /><path d="m 72 0 A 2.0 2.0 0 1,1 76 0" fill="none" stroke="black" stroke-opacity="0.25" stroke-width="0.6" /><path d="m 76 0 A 2.0 2.0 0 1,1 80 0" fill="none" stroke="black" stroke-opacity="0.25" stroke-width="0.6" /><path d="m 80 0 A 2.0 2.0 0 1,1 84 0" fill="none" stroke="black" stroke-opacity="0.25" stroke-width="0.6" /><path d="m 84 0 A 2.0 2.0 0 1,1 88 0" fill="none" stroke="black" stroke-opacity="0.25" stroke-width="0.6" /><path d="m 88 0 A 2.0 2.0 0 1,1 92 0" fill="none" stroke="black" stroke-opacity="0.25" stroke-width="0.6" /><path d="m 92 0 A 2.0 2.0 0 1,1 96 0" fill="none" stroke="black" stroke-opacity="0.25" stroke-width="0.6" /><path d="m 96 0 A 2.0 2.0 0 1,1 100 0" fill="none" stroke="black" stroke-opacity="0.25" stroke-width="0.6" /><path d="m 0 0 A 2.5 2.5 0 1,0 5 0" fill="none" stroke="red" stroke-opacity="0.25" stroke-width="0.6" /><path d="m 5 0 A 2.5 2.5 0 1,1 10 0" fill="none" stroke="red" stroke-opacity="0.25" stroke-width="0.6" /><path d="m 10 0 A 2.5 2.5 0 1,1 15 0" fill="none" stroke="red" stroke-opacity="0.25" stroke-width="0.6" /><path d="m 15 0 A 2.5 2.5 0 1,1 20 0" fill="none" stroke="red" stroke-opacity="0.25" stroke-width="0.6" /><path d="m 20 0 A 2.5 2.5 0 1,1 25 0" fill="none" stroke="red" stroke-opacity="0.25" stroke-width="0.6" /><path d="m 25 0 A 2.5 2.5 0 1,1 30 0" fill="none" stroke="red" stroke-opacity="0.25" stroke-width="0.6" /><path d="m 30 0 A 2.5 2.5 0 1,1 35 0" fill="none" stroke="red" stroke-opacity="0.25" stroke-width="0.6" /><path d="m 35 0 A 2.5 2.5 0 1,1 40 0" fill="none" stroke="red" stroke-opacity="0.25" stroke-width="0.6" /><path d="m 40 0 A 2.5 2.5 0 1,1 45 0" fill="none" stroke="red" stroke-opacity="0.25" stroke-width="0.6" /><path d="m 45 0 A 2.5 2.5 0 1,1 50 0" fill="none" stroke="red" stroke-opacity="0.25" stroke-width="0.6" /><path d="m 50 0 A 2.5 2.5 0 1,1 55 0" fill="none" stroke="red" stroke-opacity="0.25" stroke-width="0.6" /><path d="m 55 0 A 2.5 2.5 0 1,1 60 0" fill="none" stroke="red" stroke-opacity="0.25" stroke-width="0.6" /><path d="m 60 0 A 2.5 2.5 0 1,1 65 0" fill="none" stroke="red" stroke-opacity="0.25" stroke-width="0.6" /><path d="m 65 0 A 2.5 2.5 0 1,1 70 0" fill="none" stroke="red" stroke-opacity="0.25" stroke-width="0.6" /><path d="m 70 0 A 2.5 2.5 0 1,1 75 0" fill="none" stroke="red" stroke-opacity="0.25" stroke-width="0.6" /><path d="m 75 0 A 2.5 2.5 0 1,1 80 0" fill="none" stroke="red" stroke-opacity="0.25" stroke-width="0.6" /><path d="m 80 0 A 2.5 2.5 0 1,1 85 0" fill="none" stroke="red" stroke-opacity="0.25" stroke-width="0.6" /><path d="m 85 0 A 2.5 2.5 0 1,1 90 0" fill="none" stroke="red" stroke-opacity="0.25" stroke-width="0.6" /><path d="m 90 0 A 2.5 2.5 0 1,1 95 0" fill="none" stroke="red" stroke-opacity="0.25" stroke-width="0.6" /><path d="m 95 0 A 2.5 2.5 0 1,1 100 0" fill="none" stroke="red" stroke-opacity="0.25" stroke-width="0.6" /><path d="m 0 0 A 3.0 3.0 0 1,1 6 0" fill="none" stroke="black" stroke-opacity="0.25" stroke-width="0.6" /><path d="m 6 0 A 3.0 3.0 0 1,1 12 0" fill="none" stroke="black" stroke-opacity="0.25" stroke-width="0.6" /><path d="m 12 0 A 3.0 3.0 0 1,1 18 0" fill="none" stroke="black" stroke-opacity="0.25" stroke-width="0.6" /><path d="m 18 0 A 3.0 3.0 0 1,1 24 0" fill="none" stroke="black" stroke-opacity="0.25" stroke-width="0.6" /><path d="m 24 0 A 3.0 3.0 0 1,1 30 0" fill="none" stroke="black" stroke-opacity="0.25" stroke-width="0.6" /><path d="m 30 0 A 3.0 3.0 0 1,1 36 0" fill="none" stroke="black" stroke-opacity="0.25" stroke-width="0.6" /><path d="m 36 0 A 3.0 3.0 0 1,1 42 0" fill="none" stroke="black" stroke-opacity="0.25" stroke-width="0.6" /><path d="m 42 0 A 3.0 3.0 0 1,1 48 0" fill="none" stroke="black" stroke-opacity="0.25" stroke-width="0.6" /><path d="m 48 0 A 3.0 3.0 0 1,1 54 0" fill="none" stroke="black" stroke-opacity="0.25" stroke-width="0.6" /><path d="m 54 0 A 3.0 3.0 0 1,1 60 0" fill="none" stroke="black" stroke-opacity="0.25" stroke-width="0.6" /><path d="m 60 0 A 3.0 3.0 0 1,1 66 0" fill="none" stroke="black" stroke-opacity="0.25" stroke-width="0.6" /><path d="m 66 0 A 3.0 3.0 0 1,1 72 0" fill="none" stroke="black" stroke-opacity="0.25" stroke-width="0.6" /><path d="m 72 0 A 3.0 3.0 0 1,1 78 0" fill="none" stroke="black" stroke-opacity="0.25" stroke-width="0.6" /><path d="m 78 0 A 3.0 3.0 0 1,1 84 0" fill="none" stroke="black" stroke-opacity="0.25" stroke-width="0.6" /><path d="m 84 0 A 3.0 3.0 0 1,1 90 0" fill="none" stroke="black" stroke-opacity="0.25" stroke-width="0.6" /><path d="m 90 0 A 3.0 3.0 0 1,1 96 0" fill="none" stroke="black" stroke-opacity="0.25" stroke-width="0.6" /><path d="m 0 0 A 3.5 3.5 0 1,0 7 0" fill="none" stroke="red" stroke-opacity="0.25" stroke-width="0.6" /><path d="m 7 0 A 3.5 3.5 0 1,1 14 0" fill="none" stroke="red" stroke-opacity="0.25" stroke-width="0.6" /><path d="m 14 0 A 3.5 3.5 0 1,1 21 0" fill="none" stroke="red" stroke-opacity="0.25" stroke-width="0.6" /><path d="m 21 0 A 3.5 3.5 0 1,1 28 0" fill="none" stroke="red" stroke-opacity="0.25" stroke-width="0.6" /><path d="m 28 0 A 3.5 3.5 0 1,1 35 0" fill="none" stroke="red" stroke-opacity="0.25" stroke-width="0.6" /><path d="m 35 0 A 3.5 3.5 0 1,1 42 0" fill="none" stroke="red" stroke-opacity="0.25" stroke-width="0.6" /><path d="m 42 0 A 3.5 3.5 0 1,1 49 0" fill="none" stroke="red" stroke-opacity="0.25" stroke-width="0.6" /><path d="m 49 0 A 3.5 3.5 0 1,1 56 0" fill="none" stroke="red" stroke-opacity="0.25" stroke-width="0.6" /><path d="m 56 0 A 3.5 3.5 0 1,1 63 0" fill="none" stroke="red" stroke-opacity="0.25" stroke-width="0.6" /><path d="m 63 0 A 3.5 3.5 0 1,1 70 0" fill="none" stroke="red" stroke-opacity="0.25" stroke-width="0.6" /><path d="m 70 0 A 3.5 3.5 0 1,1 77 0" fill="none" stroke="red" stroke-opacity="0.25" stroke-width="0.6" /><path d="m 77 0 A 3.5 3.5 0 1,1 84 0" fill="none" stroke="red" stroke-opacity="0.25" stroke-width="0.6" /><path d="m 84 0 A 3.5 3.5 0 1,1 91 0" fill="none" stroke="red" stroke-opacity="0.25" stroke-width="0.6" /><path d="m 91 0 A 3.5 3.5 0 1,1 98 0" fill="none" stroke="red" stroke-opacity="0.25" stroke-width="0.6" /><path d="m 0 0 A 4.0 4.0 0 1,1 8 0" fill="none" stroke="black" stroke-opacity="0.25" stroke-width="0.6" /><path d="m 8 0 A 4.0 4.0 0 1,1 16 0" fill="none" stroke="black" stroke-opacity="0.25" stroke-width="0.6" /><path d="m 16 0 A 4.0 4.0 0 1,1 24 0" fill="none" stroke="black" stroke-opacity="0.25" stroke-width="0.6" /><path d="m 24 0 A 4.0 4.0 0 1,1 32 0" fill="none" stroke="black" stroke-opacity="0.25" stroke-width="0.6" /><path d="m 32 0 A 4.0 4.0 0 1,1 40 0" fill="none" stroke="black" stroke-opacity="0.25" stroke-width="0.6" /><path d="m 40 0 A 4.0 4.0 0 1,1 48 0" fill="none" stroke="black" stroke-opacity="0.25" stroke-width="0.6" /><path d="m 48 0 A 4.0 4.0 0 1,1 56 0" fill="none" stroke="black" stroke-opacity="0.25" stroke-width="0.6" /><path d="m 56 0 A 4.0 4.0 0 1,1 64 0" fill="none" stroke="black" stroke-opacity="0.25" stroke-width="0.6" /><path d="m 64 0 A 4.0 4.0 0 1,1 72 0" fill="none" stroke="black" stroke-opacity="0.25" stroke-width="0.6" /><path d="m 72 0 A 4.0 4.0 0 1,1 80 0" fill="none" stroke="black" stroke-opacity="0.25" stroke-width="0.6" /><path d="m 80 0 A 4.0 4.0 0 1,1 88 0" fill="none" stroke="black" stroke-opacity="0.25" stroke-width="0.6" /><path d="m 88 0 A 4.0 4.0 0 1,1 96 0" fill="none" stroke="black" stroke-opacity="0.25" stroke-width="0.6" /><path d="m 0 0 A 4.5 4.5 0 1,1 9 0" fill="none" stroke="black" stroke-opacity="0.25" stroke-width="0.6" /><path d="m 9 0 A 4.5 4.5 0 1,1 18 0" fill="none" stroke="black" stroke-opacity="0.25" stroke-width="0.6" /><path d="m 18 0 A 4.5 4.5 0 1,1 27 0" fill="none" stroke="black" stroke-opacity="0.25" stroke-width="0.6" /><path d="m 27 0 A 4.5 4.5 0 1,1 36 0" fill="none" stroke="black" stroke-opacity="0.25" stroke-width="0.6" /><path d="m 36 0 A 4.5 4.5 0 1,1 45 0" fill="none" stroke="black" stroke-opacity="0.25" stroke-width="0.6" /><path d="m 45 0 A 4.5 4.5 0 1,1 54 0" fill="none" stroke="black" stroke-opacity="0.25" stroke-width="0.6" /><path d="m 54 0 A 4.5 4.5 0 1,1 63 0" fill="none" stroke="black" stroke-opacity="0.25" stroke-width="0.6" /><path d="m 63 0 A 4.5 4.5 0 1,1 72 0" fill="none" stroke="black" stroke-opacity="0.25" stroke-width="0.6" /><path d="m 72 0 A 4.5 4.5 0 1,1 81 0" fill="none" stroke="black" stroke-opacity="0.25" stroke-width="0.6" /><path d="m 81 0 A 4.5 4.5 0 1,1 90 0" fill="none" stroke="black" stroke-opacity="0.25" stroke-width="0.6" /><path d="m 90 0 A 4.5 4.5 0 1,1 99 0" fill="none" stroke="black" stroke-opacity="0.25" stroke-width="0.6" /><path d="m 0 0 A 5.0 5.0 0 1,1 10 0" fill="none" stroke="black" stroke-opacity="0.25" stroke-width="0.6" /><path d="m 10 0 A 5.0 5.0 0 1,1 20 0" fill="none" stroke="black" stroke-opacity="0.25" stroke-width="0.6" /><path d="m 20 0 A 5.0 5.0 0 1,1 30 0" fill="none" stroke="black" stroke-opacity="0.25" stroke-width="0.6" /><path d="m 30 0 A 5.0 5.0 0 1,1 40 0" fill="none" stroke="black" stroke-opacity="0.25" stroke-width="0.6" /><path d="m 40 0 A 5.0 5.0 0 1,1 50 0" fill="none" stroke="black" stroke-opacity="0.25" stroke-width="0.6" /><path d="m 50 0 A 5.0 5.0 0 1,1 60 0" fill="none" stroke="black" stroke-opacity="0.25" stroke-width="0.6" /><path d="m 60 0 A 5.0 5.0 0 1,1 70 0" fill="none" stroke="black" stroke-opacity="0.25" stroke-width="0.6" /><path d="m 70 0 A 5.0 5.0 0 1,1 80 0" fill="none" stroke="black" stroke-opacity="0.25" stroke-width="0.6" /><path d="m 80 0 A 5.0 5.0 0 1,1 90 0" fill="none" stroke="black" stroke-opacity="0.25" stroke-width="0.6" /><path d="m 90 0 A 5.0 5.0 0 1,1 100 0" fill="none" stroke="black" stroke-opacity="0.25" stroke-width="0.6" /><path d="m 0 0 A 5.5 5.5 0 1,0 11 0" fill="none" stroke="red" stroke-opacity="0.25" stroke-width="0.6" /><path d="m 11 0 A 5.5 5.5 0 1,1 22 0" fill="none" stroke="red" stroke-opacity="0.25" stroke-width="0.6" /><path d="m 22 0 A 5.5 5.5 0 1,1 33 0" fill="none" stroke="red" stroke-opacity="0.25" stroke-width="0.6" /><path d="m 33 0 A 5.5 5.5 0 1,1 44 0" fill="none" stroke="red" stroke-opacity="0.25" stroke-width="0.6" /><path d="m 44 0 A 5.5 5.5 0 1,1 55 0" fill="none" stroke="red" stroke-opacity="0.25" stroke-width="0.6" /><path d="m 55 0 A 5.5 5.5 0 1,1 66 0" fill="none" stroke="red" stroke-opacity="0.25" stroke-width="0.6" /><path d="m 66 0 A 5.5 5.5 0 1,1 77 0" fill="none" stroke="red" stroke-opacity="0.25" stroke-width="0.6" /><path d="m 77 0 A 5.5 5.5 0 1,1 88 0" fill="none" stroke="red" stroke-opacity="0.25" stroke-width="0.6" /><path d="m 88 0 A 5.5 5.5 0 1,1 99 0" fill="none" stroke="red" stroke-opacity="0.25" stroke-width="0.6" /><path d="m 0 0 A 6.0 6.0 0 1,1 12 0" fill="none" stroke="black" stroke-opacity="0.25" stroke-width="0.6" /><path d="m 12 0 A 6.0 6.0 0 1,1 24 0" fill="none" stroke="black" stroke-opacity="0.25" stroke-width="0.6" /><path d="m 24 0 A 6.0 6.0 0 1,1 36 0" fill="none" stroke="black" stroke-opacity="0.25" stroke-width="0.6" /><path d="m 36 0 A 6.0 6.0 0 1,1 48 0" fill="none" stroke="black" stroke-opacity="0.25" stroke-width="0.6" /><path d="m 48 0 A 6.0 6.0 0 1,1 60 0" fill="none" stroke="black" stroke-opacity="0.25" stroke-width="0.6" /><path d="m 60 0 A 6.0 6.0 0 1,1 72 0" fill="none" stroke="black" stroke-opacity="0.25" stroke-width="0.6" /><path d="m 72 0 A 6.0 6.0 0 1,1 84 0" fill="none" stroke="black" stroke-opacity="0.25" stroke-width="0.6" /><path d="m 84 0 A 6.0 6.0 0 1,1 96 0" fill="none" stroke="black" stroke-opacity="0.25" stroke-width="0.6" /><path d="m 0 0 A 6.5 6.5 0 1,0 13 0" fill="none" stroke="red" stroke-opacity="0.25" stroke-width="0.6" /><path d="m 13 0 A 6.5 6.5 0 1,1 26 0" fill="none" stroke="red" stroke-opacity="0.25" stroke-width="0.6" /><path d="m 26 0 A 6.5 6.5 0 1,1 39 0" fill="none" stroke="red" stroke-opacity="0.25" stroke-width="0.6" /><path d="m 39 0 A 6.5 6.5 0 1,1 52 0" fill="none" stroke="red" stroke-opacity="0.25" stroke-width="0.6" /><path d="m 52 0 A 6.5 6.5 0 1,1 65 0" fill="none" stroke="red" stroke-opacity="0.25" stroke-width="0.6" /><path d="m 65 0 A 6.5 6.5 0 1,1 78 0" fill="none" stroke="red" stroke-opacity="0.25" stroke-width="0.6" /><path d="m 78 0 A 6.5 6.5 0 1,1 91 0" fill="none" stroke="red" stroke-opacity="0.25" stroke-width="0.6" /><path d="m 0 0 A 7.0 7.0 0 1,1 14 0" fill="none" stroke="black" stroke-opacity="0.25" stroke-width="0.6" /><path d="m 14 0 A 7.0 7.0 0 1,1 28 0" fill="none" stroke="black" stroke-opacity="0.25" stroke-width="0.6" /><path d="m 28 0 A 7.0 7.0 0 1,1 42 0" fill="none" stroke="black" stroke-opacity="0.25" stroke-width="0.6" /><path d="m 42 0 A 7.0 7.0 0 1,1 56 0" fill="none" stroke="black" stroke-opacity="0.25" stroke-width="0.6" /><path d="m 56 0 A 7.0 7.0 0 1,1 70 0" fill="none" stroke="black" stroke-opacity="0.25" stroke-width="0.6" /><path d="m 70 0 A 7.0 7.0 0 1,1 84 0" fill="none" stroke="black" stroke-opacity="0.25" stroke-width="0.6" /><path d="m 84 0 A 7.0 7.0 0 1,1 98 0" fill="none" stroke="black" stroke-opacity="0.25" stroke-width="0.6" /><path d="m 0 0 A 7.5 7.5 0 1,1 15 0" fill="none" stroke="black" stroke-opacity="0.25" stroke-width="0.6" /><path d="m 15 0 A 7.5 7.5 0 1,1 30 0" fill="none" stroke="black" stroke-opacity="0.25" stroke-width="0.6" /><path d="m 30 0 A 7.5 7.5 0 1,1 45 0" fill="none" stroke="black" stroke-opacity="0.25" stroke-width="0.6" /><path d="m 45 0 A 7.5 7.5 0 1,1 60 0" fill="none" stroke="black" stroke-opacity="0.25" stroke-width="0.6" /><path d="m 60 0 A 7.5 7.5 0 1,1 75 0" fill="none" stroke="black" stroke-opacity="0.25" stroke-width="0.6" /><path d="m 75 0 A 7.5 7.5 0 1,1 90 0" fill="none" stroke="black" stroke-opacity="0.25" stroke-width="0.6" /><path d="m 0 0 A 8.0 8.0 0 1,1 16 0" fill="none" stroke="black" stroke-opacity="0.25" stroke-width="0.6" /><path d="m 16 0 A 8.0 8.0 0 1,1 32 0" fill="none" stroke="black" stroke-opacity="0.25" stroke-width="0.6" /><path d="m 32 0 A 8.0 8.0 0 1,1 48 0" fill="none" stroke="black" stroke-opacity="0.25" stroke-width="0.6" /><path d="m 48 0 A 8.0 8.0 0 1,1 64 0" fill="none" stroke="black" stroke-opacity="0.25" stroke-width="0.6" /><path d="m 64 0 A 8.0 8.0 0 1,1 80 0" fill="none" stroke="black" stroke-opacity="0.25" stroke-width="0.6" /><path d="m 80 0 A 8.0 8.0 0 1,1 96 0" fill="none" stroke="black" stroke-opacity="0.25" stroke-width="0.6" /><path d="m 0 0 A 8.5 8.5 0 1,0 17 0" fill="none" stroke="red" stroke-opacity="0.25" stroke-width="0.6" /><path d="m 17 0 A 8.5 8.5 0 1,1 34 0" fill="none" stroke="red" stroke-opacity="0.25" stroke-width="0.6" /><path d="m 34 0 A 8.5 8.5 0 1,1 51 0" fill="none" stroke="red" stroke-opacity="0.25" stroke-width="0.6" /><path d="m 51 0 A 8.5 8.5 0 1,1 68 0" fill="none" stroke="red" stroke-opacity="0.25" stroke-width="0.6" /><path d="m 68 0 A 8.5 8.5 0 1,1 85 0" fill="none" stroke="red" stroke-opacity="0.25" stroke-width="0.6" /><path d="m 0 0 A 9.0 9.0 0 1,1 18 0" fill="none" stroke="black" stroke-opacity="0.25" stroke-width="0.6" /><path d="m 18 0 A 9.0 9.0 0 1,1 36 0" fill="none" stroke="black" stroke-opacity="0.25" stroke-width="0.6" /><path d="m 36 0 A 9.0 9.0 0 1,1 54 0" fill="none" stroke="black" stroke-opacity="0.25" stroke-width="0.6" /><path d="m 54 0 A 9.0 9.0 0 1,1 72 0" fill="none" stroke="black" stroke-opacity="0.25" stroke-width="0.6" /><path d="m 72 0 A 9.0 9.0 0 1,1 90 0" fill="none" stroke="black" stroke-opacity="0.25" stroke-width="0.6" /><path d="m 0 0 A 9.5 9.5 0 1,0 19 0" fill="none" stroke="red" stroke-opacity="0.25" stroke-width="0.6" /><path d="m 19 0 A 9.5 9.5 0 1,1 38 0" fill="none" stroke="red" stroke-opacity="0.25" stroke-width="0.6" /><path d="m 38 0 A 9.5 9.5 0 1,1 57 0" fill="none" stroke="red" stroke-opacity="0.25" stroke-width="0.6" /><path d="m 57 0 A 9.5 9.5 0 1,1 76 0" fill="none" stroke="red" stroke-opacity="0.25" stroke-width="0.6" /><path d="m 76 0 A 9.5 9.5 0 1,1 95 0" fill="none" stroke="red" stroke-opacity="0.25" stroke-width="0.6" /><path d="m 0 0 A 10.0 10.0 0 1,1 20 0" fill="none" stroke="black" stroke-opacity="0.25" stroke-width="0.6" /><path d="m 20 0 A 10.0 10.0 0 1,1 40 0" fill="none" stroke="black" stroke-opacity="0.25" stroke-width="0.6" /><path d="m 40 0 A 10.0 10.0 0 1,1 60 0" fill="none" stroke="black" stroke-opacity="0.25" stroke-width="0.6" /><path d="m 60 0 A 10.0 10.0 0 1,1 80 0" fill="none" stroke="black" stroke-opacity="0.25" stroke-width="0.6" /><path d="m 80 0 A 10.0 10.0 0 1,1 100 0" fill="none" stroke="black" stroke-opacity="0.25" stroke-width="0.6" /><path d="m 0 0 A 10.5 10.5 0 1,1 21 0" fill="none" stroke="black" stroke-opacity="0.25" stroke-width="0.6" /><path d="m 21 0 A 10.5 10.5 0 1,1 42 0" fill="none" stroke="black" stroke-opacity="0.25" stroke-width="0.6" /><path d="m 42 0 A 10.5 10.5 0 1,1 63 0" fill="none" stroke="black" stroke-opacity="0.25" stroke-width="0.6" /><path d="m 63 0 A 10.5 10.5 0 1,1 84 0" fill="none" stroke="black" stroke-opacity="0.25" stroke-width="0.6" /><path d="m 0 0 A 11.0 11.0 0 1,1 22 0" fill="none" stroke="black" stroke-opacity="0.25" stroke-width="0.6" /><path d="m 22 0 A 11.0 11.0 0 1,1 44 0" fill="none" stroke="black" stroke-opacity="0.25" stroke-width="0.6" /><path d="m 44 0 A 11.0 11.0 0 1,1 66 0" fill="none" stroke="black" stroke-opacity="0.25" stroke-width="0.6" /><path d="m 66 0 A 11.0 11.0 0 1,1 88 0" fill="none" stroke="black" stroke-opacity="0.25" stroke-width="0.6" /><path d="m 0 0 A 11.5 11.5 0 1,0 23 0" fill="none" stroke="red" stroke-opacity="0.25" stroke-width="0.6" /><path d="m 23 0 A 11.5 11.5 0 1,1 46 0" fill="none" stroke="red" stroke-opacity="0.25" stroke-width="0.6" /><path d="m 46 0 A 11.5 11.5 0 1,1 69 0" fill="none" stroke="red" stroke-opacity="0.25" stroke-width="0.6" /><path d="m 69 0 A 11.5 11.5 0 1,1 92 0" fill="none" stroke="red" stroke-opacity="0.25" stroke-width="0.6" /><path d="m 0 0 A 12.0 12.0 0 1,1 24 0" fill="none" stroke="black" stroke-opacity="0.25" stroke-width="0.6" /><path d="m 24 0 A 12.0 12.0 0 1,1 48 0" fill="none" stroke="black" stroke-opacity="0.25" stroke-width="0.6" /><path d="m 48 0 A 12.0 12.0 0 1,1 72 0" fill="none" stroke="black" stroke-opacity="0.25" stroke-width="0.6" /><path d="m 72 0 A 12.0 12.0 0 1,1 96 0" fill="none" stroke="black" stroke-opacity="0.25" stroke-width="0.6" /><path d="m 0 0 A 12.5 12.5 0 1,1 25 0" fill="none" stroke="black" stroke-opacity="0.25" stroke-width="0.6" /><path d="m 25 0 A 12.5 12.5 0 1,1 50 0" fill="none" stroke="black" stroke-opacity="0.25" stroke-width="0.6" /><path d="m 50 0 A 12.5 12.5 0 1,1 75 0" fill="none" stroke="black" stroke-opacity="0.25" stroke-width="0.6" /><path d="m 75 0 A 12.5 12.5 0 1,1 100 0" fill="none" stroke="black" stroke-opacity="0.25" stroke-width="0.6" /><path d="m 0 0 A 13.0 13.0 0 1,1 26 0" fill="none" stroke="black" stroke-opacity="0.25" stroke-width="0.6" /><path d="m 26 0 A 13.0 13.0 0 1,1 52 0" fill="none" stroke="black" stroke-opacity="0.25" stroke-width="0.6" /><path d="m 52 0 A 13.0 13.0 0 1,1 78 0" fill="none" stroke="black" stroke-opacity="0.25" stroke-width="0.6" /><path d="m 0 0 A 13.5 13.5 0 1,1 27 0" fill="none" stroke="black" stroke-opacity="0.25" stroke-width="0.6" /><path d="m 27 0 A 13.5 13.5 0 1,1 54 0" fill="none" stroke="black" stroke-opacity="0.25" stroke-width="0.6" /><path d="m 54 0 A 13.5 13.5 0 1,1 81 0" fill="none" stroke="black" stroke-opacity="0.25" stroke-width="0.6" /><path d="m 0 0 A 14.0 14.0 0 1,1 28 0" fill="none" stroke="black" stroke-opacity="0.25" stroke-width="0.6" /><path d="m 28 0 A 14.0 14.0 0 1,1 56 0" fill="none" stroke="black" stroke-opacity="0.25" stroke-width="0.6" /><path d="m 56 0 A 14.0 14.0 0 1,1 84 0" fill="none" stroke="black" stroke-opacity="0.25" stroke-width="0.6" /><path d="m 0 0 A 14.5 14.5 0 1,0 29 0" fill="none" stroke="red" stroke-opacity="0.25" stroke-width="0.6" /><path d="m 29 0 A 14.5 14.5 0 1,1 58 0" fill="none" stroke="red" stroke-opacity="0.25" stroke-width="0.6" /><path d="m 58 0 A 14.5 14.5 0 1,1 87 0" fill="none" stroke="red" stroke-opacity="0.25" stroke-width="0.6" /><path d="m 0 0 A 15.0 15.0 0 1,1 30 0" fill="none" stroke="black" stroke-opacity="0.25" stroke-width="0.6" /><path d="m 30 0 A 15.0 15.0 0 1,1 60 0" fill="none" stroke="black" stroke-opacity="0.25" stroke-width="0.6" /><path d="m 60 0 A 15.0 15.0 0 1,1 90 0" fill="none" stroke="black" stroke-opacity="0.25" stroke-width="0.6" /><path d="m 0 0 A 15.5 15.5 0 1,0 31 0" fill="none" stroke="red" stroke-opacity="0.25" stroke-width="0.6" /><path d="m 31 0 A 15.5 15.5 0 1,1 62 0" fill="none" stroke="red" stroke-opacity="0.25" stroke-width="0.6" /><path d="m 62 0 A 15.5 15.5 0 1,1 93 0" fill="none" stroke="red" stroke-opacity="0.25" stroke-width="0.6" /><path d="m 0 0 A 16.0 16.0 0 1,1 32 0" fill="none" stroke="black" stroke-opacity="0.25" stroke-width="0.6" /><path d="m 32 0 A 16.0 16.0 0 1,1 64 0" fill="none" stroke="black" stroke-opacity="0.25" stroke-width="0.6" /><path d="m 64 0 A 16.0 16.0 0 1,1 96 0" fill="none" stroke="black" stroke-opacity="0.25" stroke-width="0.6" /><path d="m 0 0 A 16.5 16.5 0 1,1 33 0" fill="none" stroke="black" stroke-opacity="0.25" stroke-width="0.6" /><path d="m 33 0 A 16.5 16.5 0 1,1 66 0" fill="none" stroke="black" stroke-opacity="0.25" stroke-width="0.6" /><path d="m 66 0 A 16.5 16.5 0 1,1 99 0" fill="none" stroke="black" stroke-opacity="0.25" stroke-width="0.6" /><path d="m 0 0 A 17.0 17.0 0 1,1 34 0" fill="none" stroke="black" stroke-opacity="0.25" stroke-width="0.6" /><path d="m 34 0 A 17.0 17.0 0 1,1 68 0" fill="none" stroke="black" stroke-opacity="0.25" stroke-width="0.6" /><path d="m 0 0 A 17.5 17.5 0 1,1 35 0" fill="none" stroke="black" stroke-opacity="0.25" stroke-width="0.6" /><path d="m 35 0 A 17.5 17.5 0 1,1 70 0" fill="none" stroke="black" stroke-opacity="0.25" stroke-width="0.6" /><path d="m 0 0 A 18.0 18.0 0 1,1 36 0" fill="none" stroke="black" stroke-opacity="0.25" stroke-width="0.6" /><path d="m 36 0 A 18.0 18.0 0 1,1 72 0" fill="none" stroke="black" stroke-opacity="0.25" stroke-width="0.6" /><path d="m 0 0 A 18.5 18.5 0 1,0 37 0" fill="none" stroke="red" stroke-opacity="0.25" stroke-width="0.6" /><path d="m 37 0 A 18.5 18.5 0 1,1 74 0" fill="none" stroke="red" stroke-opacity="0.25" stroke-width="0.6" /><path d="m 0 0 A 19.0 19.0 0 1,1 38 0" fill="none" stroke="black" stroke-opacity="0.25" stroke-width="0.6" /><path d="m 38 0 A 19.0 19.0 0 1,1 76 0" fill="none" stroke="black" stroke-opacity="0.25" stroke-width="0.6" /><path d="m 0 0 A 19.5 19.5 0 1,1 39 0" fill="none" stroke="black" stroke-opacity="0.25" stroke-width="0.6" /><path d="m 39 0 A 19.5 19.5 0 1,1 78 0" fill="none" stroke="black" stroke-opacity="0.25" stroke-width="0.6" /><path d="m 0 0 A 20.0 20.0 0 1,1 40 0" fill="none" stroke="black" stroke-opacity="0.25" stroke-width="0.6" /><path d="m 40 0 A 20.0 20.0 0 1,1 80 0" fill="none" stroke="black" stroke-opacity="0.25" stroke-width="0.6" /><path d="m 0 0 A 20.5 20.5 0 1,0 41 0" fill="none" stroke="red" stroke-opacity="0.25" stroke-width="0.6" /><path d="m 41 0 A 20.5 20.5 0 1,1 82 0" fill="none" stroke="red" stroke-opacity="0.25" stroke-width="0.6" /><path d="m 0 0 A 21.0 21.0 0 1,1 42 0" fill="none" stroke="black" stroke-opacity="0.25" stroke-width="0.6" /><path d="m 42 0 A 21.0 21.0 0 1,1 84 0" fill="none" stroke="black" stroke-opacity="0.25" stroke-width="0.6" /><path d="m 0 0 A 21.5 21.5 0 1,0 43 0" fill="none" stroke="red" stroke-opacity="0.25" stroke-width="0.6" /><path d="m 43 0 A 21.5 21.5 0 1,1 86 0" fill="none" stroke="red" stroke-opacity="0.25" stroke-width="0.6" /><path d="m 0 0 A 22.0 22.0 0 1,1 44 0" fill="none" stroke="black" stroke-opacity="0.25" stroke-width="0.6" /><path d="m 44 0 A 22.0 22.0 0 1,1 88 0" fill="none" stroke="black" stroke-opacity="0.25" stroke-width="0.6" /><path d="m 0 0 A 22.5 22.5 0 1,1 45 0" fill="none" stroke="black" stroke-opacity="0.25" stroke-width="0.6" /><path d="m 45 0 A 22.5 22.5 0 1,1 90 0" fill="none" stroke="black" stroke-opacity="0.25" stroke-width="0.6" /><path d="m 0 0 A 23.0 23.0 0 1,1 46 0" fill="none" stroke="black" stroke-opacity="0.25" stroke-width="0.6" /><path d="m 46 0 A 23.0 23.0 0 1,1 92 0" fill="none" stroke="black" stroke-opacity="0.25" stroke-width="0.6" /><path d="m 0 0 A 23.5 23.5 0 1,0 47 0" fill="none" stroke="red" stroke-opacity="0.25" stroke-width="0.6" /><path d="m 47 0 A 23.5 23.5 0 1,1 94 0" fill="none" stroke="red" stroke-opacity="0.25" stroke-width="0.6" /><path d="m 0 0 A 24.0 24.0 0 1,1 48 0" fill="none" stroke="black" stroke-opacity="0.25" stroke-width="0.6" /><path d="m 48 0 A 24.0 24.0 0 1,1 96 0" fill="none" stroke="black" stroke-opacity="0.25" stroke-width="0.6" /><path d="m 0 0 A 24.5 24.5 0 1,1 49 0" fill="none" stroke="black" stroke-opacity="0.25" stroke-width="0.6" /><path d="m 49 0 A 24.5 24.5 0 1,1 98 0" fill="none" stroke="black" stroke-opacity="0.25" stroke-width="0.6" /><path d="m 0 0 A 25.0 25.0 0 1,1 50 0" fill="none" stroke="black" stroke-opacity="0.25" stroke-width="0.6" /><path d="m 50 0 A 25.0 25.0 0 1,1 100 0" fill="none" stroke="black" stroke-opacity="0.25" stroke-width="0.6" /><path d="m 0 0 A 25.5 25.5 0 1,1 51 0" fill="none" stroke="black" stroke-opacity="0.25" stroke-width="0.6" /><path d="m 0 0 A 26.0 26.0 0 1,1 52 0" fill="none" stroke="black" stroke-opacity="0.25" stroke-width="0.6" /><path d="m 0 0 A 26.5 26.5 0 1,0 53 0" fill="none" stroke="red" stroke-opacity="0.25" stroke-width="0.6" /><path d="m 0 0 A 27.0 27.0 0 1,1 54 0" fill="none" stroke="black" stroke-opacity="0.25" stroke-width="0.6" /><path d="m 0 0 A 27.5 27.5 0 1,1 55 0" fill="none" stroke="black" stroke-opacity="0.25" stroke-width="0.6" /><path d="m 0 0 A 28.0 28.0 0 1,1 56 0" fill="none" stroke="black" stroke-opacity="0.25" stroke-width="0.6" /><path d="m 0 0 A 28.5 28.5 0 1,1 57 0" fill="none" stroke="black" stroke-opacity="0.25" stroke-width="0.6" /><path d="m 0 0 A 29.0 29.0 0 1,1 58 0" fill="none" stroke="black" stroke-opacity="0.25" stroke-width="0.6" /><path d="m 0 0 A 29.5 29.5 0 1,0 59 0" fill="none" stroke="red" stroke-opacity="0.25" stroke-width="0.6" /><path d="m 0 0 A 30.0 30.0 0 1,1 60 0" fill="none" stroke="black" stroke-opacity="0.25" stroke-width="0.6" /><path d="m 0 0 A 30.5 30.5 0 1,0 61 0" fill="none" stroke="red" stroke-opacity="0.25" stroke-width="0.6" /><path d="m 0 0 A 31.0 31.0 0 1,1 62 0" fill="none" stroke="black" stroke-opacity="0.25" stroke-width="0.6" /><path d="m 0 0 A 31.5 31.5 0 1,1 63 0" fill="none" stroke="black" stroke-opacity="0.25" stroke-width="0.6" /><path d="m 0 0 A 32.0 32.0 0 1,1 64 0" fill="none" stroke="black" stroke-opacity="0.25" stroke-width="0.6" /><path d="m 0 0 A 32.5 32.5 0 1,1 65 0" fill="none" stroke="black" stroke-opacity="0.25" stroke-width="0.6" /><path d="m 0 0 A 33.0 33.0 0 1,1 66 0" fill="none" stroke="black" stroke-opacity="0.25" stroke-width="0.6" /><path d="m 0 0 A 33.5 33.5 0 1,0 67 0" fill="none" stroke="red" stroke-opacity="0.25" stroke-width="0.6" /><path d="m 0 0 A 34.0 34.0 0 1,1 68 0" fill="none" stroke="black" stroke-opacity="0.25" stroke-width="0.6" /><path d="m 0 0 A 34.5 34.5 0 1,1 69 0" fill="none" stroke="black" stroke-opacity="0.25" stroke-width="0.6" /><path d="m 0 0 A 35.0 35.0 0 1,1 70 0" fill="none" stroke="black" stroke-opacity="0.25" stroke-width="0.6" /><path d="m 0 0 A 35.5 35.5 0 1,0 71 0" fill="none" stroke="red" stroke-opacity="0.25" stroke-width="0.6" /><path d="m 0 0 A 36.0 36.0 0 1,1 72 0" fill="none" stroke="black" stroke-opacity="0.25" stroke-width="0.6" /><path d="m 0 0 A 36.5 36.5 0 1,0 73 0" fill="none" stroke="red" stroke-opacity="0.25" stroke-width="0.6" /><path d="m 0 0 A 37.0 37.0 0 1,1 74 0" fill="none" stroke="black" stroke-opacity="0.25" stroke-width="0.6" /><path d="m 0 0 A 37.5 37.5 0 1,1 75 0" fill="none" stroke="black" stroke-opacity="0.25" stroke-width="0.6" /><path d="m 0 0 A 38.0 38.0 0 1,1 76 0" fill="none" stroke="black" stroke-opacity="0.25" stroke-width="0.6" /><path d="m 0 0 A 38.5 38.5 0 1,1 77 0" fill="none" stroke="black" stroke-opacity="0.25" stroke-width="0.6" /><path d="m 0 0 A 39.0 39.0 0 1,1 78 0" fill="none" stroke="black" stroke-opacity="0.25" stroke-width="0.6" /><path d="m 0 0 A 39.5 39.5 0 1,0 79 0" fill="none" stroke="red" stroke-opacity="0.25" stroke-width="0.6" /><path d="m 0 0 A 40.0 40.0 0 1,1 80 0" fill="none" stroke="black" stroke-opacity="0.25" stroke-width="0.6" /><path d="m 0 0 A 40.5 40.5 0 1,1 81 0" fill="none" stroke="black" stroke-opacity="0.25" stroke-width="0.6" /><path d="m 0 0 A 41.0 41.0 0 1,1 82 0" fill="none" stroke="black" stroke-opacity="0.25" stroke-width="0.6" /><path d="m 0 0 A 41.5 41.5 0 1,0 83 0" fill="none" stroke="red" stroke-opacity="0.25" stroke-width="0.6" /><path d="m 0 0 A 42.0 42.0 0 1,1 84 0" fill="none" stroke="black" stroke-opacity="0.25" stroke-width="0.6" /><path d="m 0 0 A 42.5 42.5 0 1,1 85 0" fill="none" stroke="black" stroke-opacity="0.25" stroke-width="0.6" /><path d="m 0 0 A 43.0 43.0 0 1,1 86 0" fill="none" stroke="black" stroke-opacity="0.25" stroke-width="0.6" /><path d="m 0 0 A 43.5 43.5 0 1,1 87 0" fill="none" stroke="black" stroke-opacity="0.25" stroke-width="0.6" /><path d="m 0 0 A 44.0 44.0 0 1,1 88 0" fill="none" stroke="black" stroke-opacity="0.25" stroke-width="0.6" /><path d="m 0 0 A 44.5 44.5 0 1,0 89 0" fill="none" stroke="red" stroke-opacity="0.25" stroke-width="0.6" /><path d="m 0 0 A 45.0 45.0 0 1,1 90 0" fill="none" stroke="black" stroke-opacity="0.25" stroke-width="0.6" /><path d="m 0 0 A 45.5 45.5 0 1,1 91 0" fill="none" stroke="black" stroke-opacity="0.25" stroke-width="0.6" /><path d="m 0 0 A 46.0 46.0 0 1,1 92 0" fill="none" stroke="black" stroke-opacity="0.25" stroke-width="0.6" /><path d="m 0 0 A 46.5 46.5 0 1,1 93 0" fill="none" stroke="black" stroke-opacity="0.25" stroke-width="0.6" /><path d="m 0 0 A 47.0 47.0 0 1,1 94 0" fill="none" stroke="black" stroke-opacity="0.25" stroke-width="0.6" /><path d="m 0 0 A 47.5 47.5 0 1,1 95 0" fill="none" stroke="black" stroke-opacity="0.25" stroke-width="0.6" /><path d="m 0 0 A 48.0 48.0 0 1,1 96 0" fill="none" stroke="black" stroke-opacity="0.25" stroke-width="0.6" /><path d="m 0 0 A 48.5 48.5 0 1,0 97 0" fill="none" stroke="red" stroke-opacity="0.25" stroke-width="0.6" /><path d="m 0 0 A 49.0 49.0 0 1,1 98 0" fill="none" stroke="black" stroke-opacity="0.25" stroke-width="0.6" /><path d="m 0 0 A 49.5 49.5 0 1,1 99 0" fill="none" stroke="black" stroke-opacity="0.25" stroke-width="0.6" /><circle cx="0" cy="0" fill="white" r="0.25" stroke="black" stroke-width="0.1" /><circle cx="1" cy="0" fill="white" r="0.25" stroke="black" stroke-width="0.1" /><circle cx="2" cy="0" fill="white" r="0.25" stroke="black" stroke-width="0.1" /><circle cx="3" cy="0" fill="white" r="0.25" stroke="black" stroke-width="0.1" /><circle cx="4" cy="0" fill="white" r="0.25" stroke="black" stroke-width="0.1" /><circle cx="5" cy="0" fill="white" r="0.25" stroke="black" stroke-width="0.1" /><circle cx="6" cy="0" fill="white" r="0.25" stroke="black" stroke-width="0.1" /><circle cx="7" cy="0" fill="white" r="0.25" stroke="black" stroke-width="0.1" /><circle cx="8" cy="0" fill="white" r="0.25" stroke="black" stroke-width="0.1" /><circle cx="9" cy="0" fill="white" r="0.25" stroke="black" stroke-width="0.1" /><circle cx="10" cy="0" fill="white" r="0.25" stroke="black" stroke-width="0.1" /><circle cx="11" cy="0" fill="white" r="0.25" stroke="black" stroke-width="0.1" /><circle cx="12" cy="0" fill="white" r="0.25" stroke="black" stroke-width="0.1" /><circle cx="13" cy="0" fill="white" r="0.25" stroke="black" stroke-width="0.1" /><circle cx="14" cy="0" fill="white" r="0.25" stroke="black" stroke-width="0.1" /><circle cx="15" cy="0" fill="white" r="0.25" stroke="black" stroke-width="0.1" /><circle cx="16" cy="0" fill="white" r="0.25" stroke="black" stroke-width="0.1" /><circle cx="17" cy="0" fill="white" r="0.25" stroke="black" stroke-width="0.1" /><circle cx="18" cy="0" fill="white" r="0.25" stroke="black" stroke-width="0.1" /><circle cx="19" cy="0" fill="white" r="0.25" stroke="black" stroke-width="0.1" /><circle cx="20" cy="0" fill="white" r="0.25" stroke="black" stroke-width="0.1" /><circle cx="21" cy="0" fill="white" r="0.25" stroke="black" stroke-width="0.1" /><circle cx="22" cy="0" fill="white" r="0.25" stroke="black" stroke-width="0.1" /><circle cx="23" cy="0" fill="white" r="0.25" stroke="black" stroke-width="0.1" /><circle cx="24" cy="0" fill="white" r="0.25" stroke="black" stroke-width="0.1" /><circle cx="25" cy="0" fill="white" r="0.25" stroke="black" stroke-width="0.1" /><circle cx="26" cy="0" fill="white" r="0.25" stroke="black" stroke-width="0.1" /><circle cx="27" cy="0" fill="white" r="0.25" stroke="black" stroke-width="0.1" /><circle cx="28" cy="0" fill="white" r="0.25" stroke="black" stroke-width="0.1" /><circle cx="29" cy="0" fill="white" r="0.25" stroke="black" stroke-width="0.1" /><circle cx="30" cy="0" fill="white" r="0.25" stroke="black" stroke-width="0.1" /><circle cx="31" cy="0" fill="white" r="0.25" stroke="black" stroke-width="0.1" /><circle cx="32" cy="0" fill="white" r="0.25" stroke="black" stroke-width="0.1" /><circle cx="33" cy="0" fill="white" r="0.25" stroke="black" stroke-width="0.1" /><circle cx="34" cy="0" fill="white" r="0.25" stroke="black" stroke-width="0.1" /><circle cx="35" cy="0" fill="white" r="0.25" stroke="black" stroke-width="0.1" /><circle cx="36" cy="0" fill="white" r="0.25" stroke="black" stroke-width="0.1" /><circle cx="37" cy="0" fill="white" r="0.25" stroke="black" stroke-width="0.1" /><circle cx="38" cy="0" fill="white" r="0.25" stroke="black" stroke-width="0.1" /><circle cx="39" cy="0" fill="white" r="0.25" stroke="black" stroke-width="0.1" /><circle cx="40" cy="0" fill="white" r="0.25" stroke="black" stroke-width="0.1" /><circle cx="41" cy="0" fill="white" r="0.25" stroke="black" stroke-width="0.1" /><circle cx="42" cy="0" fill="white" r="0.25" stroke="black" stroke-width="0.1" /><circle cx="43" cy="0" fill="white" r="0.25" stroke="black" stroke-width="0.1" /><circle cx="44" cy="0" fill="white" r="0.25" stroke="black" stroke-width="0.1" /><circle cx="45" cy="0" fill="white" r="0.25" stroke="black" stroke-width="0.1" /><circle cx="46" cy="0" fill="white" r="0.25" stroke="black" stroke-width="0.1" /><circle cx="47" cy="0" fill="white" r="0.25" stroke="black" stroke-width="0.1" /><circle cx="48" cy="0" fill="white" r="0.25" stroke="black" stroke-width="0.1" /><circle cx="49" cy="0" fill="white" r="0.25" stroke="black" stroke-width="0.1" /><circle cx="50" cy="0" fill="white" r="0.25" stroke="black" stroke-width="0.1" /><circle cx="51" cy="0" fill="white" r="0.25" stroke="black" stroke-width="0.1" /><circle cx="52" cy="0" fill="white" r="0.25" stroke="black" stroke-width="0.1" /><circle cx="53" cy="0" fill="white" r="0.25" stroke="black" stroke-width="0.1" /><circle cx="54" cy="0" fill="white" r="0.25" stroke="black" stroke-width="0.1" /><circle cx="55" cy="0" fill="white" r="0.25" stroke="black" stroke-width="0.1" /><circle cx="56" cy="0" fill="white" r="0.25" stroke="black" stroke-width="0.1" /><circle cx="57" cy="0" fill="white" r="0.25" stroke="black" stroke-width="0.1" /><circle cx="58" cy="0" fill="white" r="0.25" stroke="black" stroke-width="0.1" /><circle cx="59" cy="0" fill="white" r="0.25" stroke="black" stroke-width="0.1" /><circle cx="60" cy="0" fill="white" r="0.25" stroke="black" stroke-width="0.1" /><circle cx="61" cy="0" fill="white" r="0.25" stroke="black" stroke-width="0.1" /><circle cx="62" cy="0" fill="white" r="0.25" stroke="black" stroke-width="0.1" /><circle cx="63" cy="0" fill="white" r="0.25" stroke="black" stroke-width="0.1" /><circle cx="64" cy="0" fill="white" r="0.25" stroke="black" stroke-width="0.1" /><circle cx="65" cy="0" fill="white" r="0.25" stroke="black" stroke-width="0.1" /><circle cx="66" cy="0" fill="white" r="0.25" stroke="black" stroke-width="0.1" /><circle cx="67" cy="0" fill="white" r="0.25" stroke="black" stroke-width="0.1" /><circle cx="68" cy="0" fill="white" r="0.25" stroke="black" stroke-width="0.1" /><circle cx="69" cy="0" fill="white" r="0.25" stroke="black" stroke-width="0.1" /><circle cx="70" cy="0" fill="white" r="0.25" stroke="black" stroke-width="0.1" /><circle cx="71" cy="0" fill="white" r="0.25" stroke="black" stroke-width="0.1" /><circle cx="72" cy="0" fill="white" r="0.25" stroke="black" stroke-width="0.1" /><circle cx="73" cy="0" fill="white" r="0.25" stroke="black" stroke-width="0.1" /><circle cx="74" cy="0" fill="white" r="0.25" stroke="black" stroke-width="0.1" /><circle cx="75" cy="0" fill="white" r="0.25" stroke="black" stroke-width="0.1" /><circle cx="76" cy="0" fill="white" r="0.25" stroke="black" stroke-width="0.1" /><circle cx="77" cy="0" fill="white" r="0.25" stroke="black" stroke-width="0.1" /><circle cx="78" cy="0" fill="white" r="0.25" stroke="black" stroke-width="0.1" /><circle cx="79" cy="0" fill="white" r="0.25" stroke="black" stroke-width="0.1" /><circle cx="80" cy="0" fill="white" r="0.25" stroke="black" stroke-width="0.1" /><circle cx="81" cy="0" fill="white" r="0.25" stroke="black" stroke-width="0.1" /><circle cx="82" cy="0" fill="white" r="0.25" stroke="black" stroke-width="0.1" /><circle cx="83" cy="0" fill="white" r="0.25" stroke="black" stroke-width="0.1" /><circle cx="84" cy="0" fill="white" r="0.25" stroke="black" stroke-width="0.1" /><circle cx="85" cy="0" fill="white" r="0.25" stroke="black" stroke-width="0.1" /><circle cx="86" cy="0" fill="white" r="0.25" stroke="black" stroke-width="0.1" /><circle cx="87" cy="0" fill="white" r="0.25" stroke="black" stroke-width="0.1" /><circle cx="88" cy="0" fill="white" r="0.25" stroke="black" stroke-width="0.1" /><circle cx="89" cy="0" fill="white" r="0.25" stroke="black" stroke-width="0.1" /><circle cx="90" cy="0" fill="white" r="0.25" stroke="black" stroke-width="0.1" /><circle cx="91" cy="0" fill="white" r="0.25" stroke="black" stroke-width="0.1" /><circle cx="92" cy="0" fill="white" r="0.25" stroke="black" stroke-width="0.1" /><circle cx="93" cy="0" fill="white" r="0.25" stroke="black" stroke-width="0.1" /><circle cx="94" cy="0" fill="white" r="0.25" stroke="black" stroke-width="0.1" /><circle cx="95" cy="0" fill="white" r="0.25" stroke="black" stroke-width="0.1" /><circle cx="96" cy="0" fill="white" r="0.25" stroke="black" stroke-width="0.1" /><circle cx="97" cy="0" fill="white" r="0.25" stroke="black" stroke-width="0.1" /><circle cx="98" cy="0" fill="white" r="0.25" stroke="black" stroke-width="0.1" /><circle cx="99" cy="0" fill="white" r="0.25" stroke="black" stroke-width="0.1" /><circle cx="100" cy="0" fill="white" r="0.25" stroke="black" stroke-width="0.1" /></svg>